<mxfile host="app.diagrams.net" agent="Mozilla/5.0 (Windows NT 10.0; Win64; x64) AppleWebKit/537.36 (KHTML, like Gecko) Chrome/129.0.0.0 Safari/537.36" version="24.7.16">
  <diagram name="PÃ¡gina-1" id="-jYGax4Z-KlBJ2uLjjoX">
    <mxGraphModel dx="1941" dy="1733" grid="1" gridSize="10" guides="1" tooltips="1" connect="1" arrows="1" fold="1" page="1" pageScale="1" pageWidth="827" pageHeight="1169" math="0" shadow="0">
      <root>
        <mxCell id="0" />
        <mxCell id="1" parent="0" />
        <mxCell id="kctth2zFLPnqRk-hPfyQ-13" value="" style="edgeStyle=orthogonalEdgeStyle;rounded=0;orthogonalLoop=1;jettySize=auto;html=1;exitX=0;exitY=0.5;exitDx=0;exitDy=0;exitPerimeter=0;" edge="1" parent="1" source="kctth2zFLPnqRk-hPfyQ-2" target="kctth2zFLPnqRk-hPfyQ-3">
          <mxGeometry relative="1" as="geometry" />
        </mxCell>
        <mxCell id="kctth2zFLPnqRk-hPfyQ-22" value="" style="edgeStyle=orthogonalEdgeStyle;rounded=0;orthogonalLoop=1;jettySize=auto;html=1;entryX=0.5;entryY=0;entryDx=0;entryDy=0;" edge="1" parent="1" source="kctth2zFLPnqRk-hPfyQ-2" target="kctth2zFLPnqRk-hPfyQ-15">
          <mxGeometry relative="1" as="geometry" />
        </mxCell>
        <mxCell id="kctth2zFLPnqRk-hPfyQ-30" value="" style="edgeStyle=orthogonalEdgeStyle;rounded=0;orthogonalLoop=1;jettySize=auto;html=1;entryX=0.5;entryY=0;entryDx=0;entryDy=0;" edge="1" parent="1" source="kctth2zFLPnqRk-hPfyQ-2" target="kctth2zFLPnqRk-hPfyQ-23">
          <mxGeometry relative="1" as="geometry" />
        </mxCell>
        <mxCell id="kctth2zFLPnqRk-hPfyQ-2" value="&lt;font style=&quot;font-size: 16px;&quot;&gt;&lt;b&gt;java_app&lt;/b&gt;&lt;/font&gt;" style="shape=cylinder3;whiteSpace=wrap;html=1;boundedLbl=1;backgroundOutline=1;size=15;fillColor=#f5f5f5;strokeColor=#666666;fontColor=#333333;strokeWidth=4;" vertex="1" parent="1">
          <mxGeometry x="354" y="-50" width="120" height="120" as="geometry" />
        </mxCell>
        <mxCell id="kctth2zFLPnqRk-hPfyQ-3" value="&lt;font style=&quot;font-size: 15px;&quot;&gt;users&lt;/font&gt;" style="swimlane;fontStyle=0;childLayout=stackLayout;horizontal=1;startSize=30;horizontalStack=0;resizeParent=1;resizeParentMax=0;resizeLast=0;collapsible=1;marginBottom=0;whiteSpace=wrap;html=1;strokeWidth=3;" vertex="1" parent="1">
          <mxGeometry x="-60" y="130" width="290" height="210" as="geometry" />
        </mxCell>
        <mxCell id="kctth2zFLPnqRk-hPfyQ-5" value="&lt;span style=&quot;font-size: 14px;&quot;&gt;id | int&amp;nbsp; | primary key&amp;nbsp; not null auto_increment&lt;/span&gt;" style="text;strokeColor=none;fillColor=none;align=left;verticalAlign=middle;spacingLeft=4;spacingRight=4;overflow=hidden;points=[[0,0.5],[1,0.5]];portConstraint=eastwest;rotatable=0;whiteSpace=wrap;html=1;" vertex="1" parent="kctth2zFLPnqRk-hPfyQ-3">
          <mxGeometry y="30" width="290" height="30" as="geometry" />
        </mxCell>
        <mxCell id="kctth2zFLPnqRk-hPfyQ-6" value="&lt;font style=&quot;font-size: 14px;&quot;&gt;username | varchar(30) | not null unique&lt;/font&gt;" style="text;strokeColor=none;fillColor=none;align=left;verticalAlign=middle;spacingLeft=4;spacingRight=4;overflow=hidden;points=[[0,0.5],[1,0.5]];portConstraint=eastwest;rotatable=0;whiteSpace=wrap;html=1;" vertex="1" parent="kctth2zFLPnqRk-hPfyQ-3">
          <mxGeometry y="60" width="290" height="30" as="geometry" />
        </mxCell>
        <mxCell id="kctth2zFLPnqRk-hPfyQ-14" value="&lt;font style=&quot;font-size: 14px;&quot;&gt;fullName | varchar(60) | not null&lt;/font&gt;" style="text;strokeColor=none;fillColor=none;align=left;verticalAlign=middle;spacingLeft=4;spacingRight=4;overflow=hidden;points=[[0,0.5],[1,0.5]];portConstraint=eastwest;rotatable=0;whiteSpace=wrap;html=1;" vertex="1" parent="kctth2zFLPnqRk-hPfyQ-3">
          <mxGeometry y="90" width="290" height="30" as="geometry" />
        </mxCell>
        <mxCell id="kctth2zFLPnqRk-hPfyQ-7" value="&lt;font style=&quot;font-size: 14px;&quot;&gt;email | varchar(60) | not null unique&lt;/font&gt;" style="text;strokeColor=none;fillColor=none;align=left;verticalAlign=middle;spacingLeft=4;spacingRight=4;overflow=hidden;points=[[0,0.5],[1,0.5]];portConstraint=eastwest;rotatable=0;whiteSpace=wrap;html=1;" vertex="1" parent="kctth2zFLPnqRk-hPfyQ-3">
          <mxGeometry y="120" width="290" height="30" as="geometry" />
        </mxCell>
        <mxCell id="kctth2zFLPnqRk-hPfyQ-8" value="&lt;font style=&quot;font-size: 14px;&quot;&gt;password | varchar(72) | not null&lt;/font&gt;" style="text;strokeColor=none;fillColor=none;align=left;verticalAlign=middle;spacingLeft=4;spacingRight=4;overflow=hidden;points=[[0,0.5],[1,0.5]];portConstraint=eastwest;rotatable=0;whiteSpace=wrap;html=1;" vertex="1" parent="kctth2zFLPnqRk-hPfyQ-3">
          <mxGeometry y="150" width="290" height="30" as="geometry" />
        </mxCell>
        <mxCell id="kctth2zFLPnqRk-hPfyQ-9" value="&lt;font style=&quot;font-size: 14px;&quot;&gt;role | char(1) | not null&lt;/font&gt;" style="text;strokeColor=none;fillColor=none;align=left;verticalAlign=middle;spacingLeft=4;spacingRight=4;overflow=hidden;points=[[0,0.5],[1,0.5]];portConstraint=eastwest;rotatable=0;whiteSpace=wrap;html=1;" vertex="1" parent="kctth2zFLPnqRk-hPfyQ-3">
          <mxGeometry y="180" width="290" height="30" as="geometry" />
        </mxCell>
        <mxCell id="kctth2zFLPnqRk-hPfyQ-15" value="&lt;span style=&quot;font-size: 15px;&quot;&gt;client&lt;/span&gt;" style="swimlane;fontStyle=0;childLayout=stackLayout;horizontal=1;startSize=30;horizontalStack=0;resizeParent=1;resizeParentMax=0;resizeLast=0;collapsible=1;marginBottom=0;whiteSpace=wrap;html=1;strokeWidth=2;" vertex="1" parent="1">
          <mxGeometry x="269" y="170" width="290" height="180" as="geometry" />
        </mxCell>
        <mxCell id="kctth2zFLPnqRk-hPfyQ-16" value="&lt;span style=&quot;font-size: 14px;&quot;&gt;id | int&amp;nbsp; | primary key&amp;nbsp; not null auto_increment&lt;/span&gt;" style="text;strokeColor=none;fillColor=none;align=left;verticalAlign=middle;spacingLeft=4;spacingRight=4;overflow=hidden;points=[[0,0.5],[1,0.5]];portConstraint=eastwest;rotatable=0;whiteSpace=wrap;html=1;" vertex="1" parent="kctth2zFLPnqRk-hPfyQ-15">
          <mxGeometry y="30" width="290" height="30" as="geometry" />
        </mxCell>
        <mxCell id="kctth2zFLPnqRk-hPfyQ-18" value="&lt;font style=&quot;font-size: 14px;&quot;&gt;fullName | varchar(60) | not null&lt;/font&gt;" style="text;strokeColor=none;fillColor=none;align=left;verticalAlign=middle;spacingLeft=4;spacingRight=4;overflow=hidden;points=[[0,0.5],[1,0.5]];portConstraint=eastwest;rotatable=0;whiteSpace=wrap;html=1;" vertex="1" parent="kctth2zFLPnqRk-hPfyQ-15">
          <mxGeometry y="60" width="290" height="30" as="geometry" />
        </mxCell>
        <mxCell id="kctth2zFLPnqRk-hPfyQ-19" value="&lt;font style=&quot;font-size: 14px;&quot;&gt;email | varchar(60) | not null unique&lt;/font&gt;" style="text;strokeColor=none;fillColor=none;align=left;verticalAlign=middle;spacingLeft=4;spacingRight=4;overflow=hidden;points=[[0,0.5],[1,0.5]];portConstraint=eastwest;rotatable=0;whiteSpace=wrap;html=1;" vertex="1" parent="kctth2zFLPnqRk-hPfyQ-15">
          <mxGeometry y="90" width="290" height="30" as="geometry" />
        </mxCell>
        <mxCell id="kctth2zFLPnqRk-hPfyQ-34" value="&lt;font style=&quot;font-size: 14px;&quot;&gt;city | varchar(30) | not null&lt;/font&gt;" style="text;strokeColor=none;fillColor=none;align=left;verticalAlign=middle;spacingLeft=4;spacingRight=4;overflow=hidden;points=[[0,0.5],[1,0.5]];portConstraint=eastwest;rotatable=0;whiteSpace=wrap;html=1;fontSize=14;" vertex="1" parent="kctth2zFLPnqRk-hPfyQ-15">
          <mxGeometry y="120" width="290" height="30" as="geometry" />
        </mxCell>
        <mxCell id="kctth2zFLPnqRk-hPfyQ-21" value="&lt;font style=&quot;font-size: 14px;&quot;&gt;cep | int(11) | not null&lt;/font&gt;" style="text;strokeColor=none;fillColor=none;align=left;verticalAlign=middle;spacingLeft=4;spacingRight=4;overflow=hidden;points=[[0,0.5],[1,0.5]];portConstraint=eastwest;rotatable=0;whiteSpace=wrap;html=1;fontSize=14;" vertex="1" parent="kctth2zFLPnqRk-hPfyQ-15">
          <mxGeometry y="150" width="290" height="30" as="geometry" />
        </mxCell>
        <mxCell id="kctth2zFLPnqRk-hPfyQ-23" value="&lt;font style=&quot;font-size: 15px;&quot;&gt;products&lt;/font&gt;" style="swimlane;fontStyle=0;childLayout=stackLayout;horizontal=1;startSize=30;horizontalStack=0;resizeParent=1;resizeParentMax=0;resizeLast=0;collapsible=1;marginBottom=0;whiteSpace=wrap;html=1;strokeWidth=3;" vertex="1" parent="1">
          <mxGeometry x="600" y="130" width="290" height="210" as="geometry" />
        </mxCell>
        <mxCell id="kctth2zFLPnqRk-hPfyQ-24" value="&lt;span style=&quot;font-size: 14px;&quot;&gt;id | int&amp;nbsp; | primary key&amp;nbsp; not null auto_increment&lt;/span&gt;" style="text;strokeColor=none;fillColor=none;align=left;verticalAlign=middle;spacingLeft=4;spacingRight=4;overflow=hidden;points=[[0,0.5],[1,0.5]];portConstraint=eastwest;rotatable=0;whiteSpace=wrap;html=1;" vertex="1" parent="kctth2zFLPnqRk-hPfyQ-23">
          <mxGeometry y="30" width="290" height="30" as="geometry" />
        </mxCell>
        <mxCell id="kctth2zFLPnqRk-hPfyQ-25" value="&lt;font style=&quot;font-size: 14px;&quot;&gt;username | varchar(30) | not null unique&lt;/font&gt;" style="text;strokeColor=none;fillColor=none;align=left;verticalAlign=middle;spacingLeft=4;spacingRight=4;overflow=hidden;points=[[0,0.5],[1,0.5]];portConstraint=eastwest;rotatable=0;whiteSpace=wrap;html=1;" vertex="1" parent="kctth2zFLPnqRk-hPfyQ-23">
          <mxGeometry y="60" width="290" height="30" as="geometry" />
        </mxCell>
        <mxCell id="kctth2zFLPnqRk-hPfyQ-26" value="&lt;font style=&quot;font-size: 14px;&quot;&gt;fullName | varchar(60) | not null&lt;/font&gt;" style="text;strokeColor=none;fillColor=none;align=left;verticalAlign=middle;spacingLeft=4;spacingRight=4;overflow=hidden;points=[[0,0.5],[1,0.5]];portConstraint=eastwest;rotatable=0;whiteSpace=wrap;html=1;" vertex="1" parent="kctth2zFLPnqRk-hPfyQ-23">
          <mxGeometry y="90" width="290" height="30" as="geometry" />
        </mxCell>
        <mxCell id="kctth2zFLPnqRk-hPfyQ-27" value="&lt;font style=&quot;font-size: 14px;&quot;&gt;email | varchar(60) | not null unique&lt;/font&gt;" style="text;strokeColor=none;fillColor=none;align=left;verticalAlign=middle;spacingLeft=4;spacingRight=4;overflow=hidden;points=[[0,0.5],[1,0.5]];portConstraint=eastwest;rotatable=0;whiteSpace=wrap;html=1;" vertex="1" parent="kctth2zFLPnqRk-hPfyQ-23">
          <mxGeometry y="120" width="290" height="30" as="geometry" />
        </mxCell>
        <mxCell id="kctth2zFLPnqRk-hPfyQ-28" value="&lt;font style=&quot;font-size: 14px;&quot;&gt;password | varchar(72) | not null&lt;/font&gt;" style="text;strokeColor=none;fillColor=none;align=left;verticalAlign=middle;spacingLeft=4;spacingRight=4;overflow=hidden;points=[[0,0.5],[1,0.5]];portConstraint=eastwest;rotatable=0;whiteSpace=wrap;html=1;" vertex="1" parent="kctth2zFLPnqRk-hPfyQ-23">
          <mxGeometry y="150" width="290" height="30" as="geometry" />
        </mxCell>
        <mxCell id="kctth2zFLPnqRk-hPfyQ-29" value="&lt;font style=&quot;font-size: 14px;&quot;&gt;role | char(1) | not null&lt;/font&gt;" style="text;strokeColor=none;fillColor=none;align=left;verticalAlign=middle;spacingLeft=4;spacingRight=4;overflow=hidden;points=[[0,0.5],[1,0.5]];portConstraint=eastwest;rotatable=0;whiteSpace=wrap;html=1;strokeWidth=2;" vertex="1" parent="kctth2zFLPnqRk-hPfyQ-23">
          <mxGeometry y="180" width="290" height="30" as="geometry" />
        </mxCell>
      </root>
    </mxGraphModel>
  </diagram>
</mxfile>
